# xmcd
#
# Track frame offsets:
#	150
#	18435
#	33723
#	55070
#	72414
#	90896
#	109590
#	121852
#	141920
#	159052
#	177772
#	203604
#	228999
#
# Disc length: 3201 seconds
#
# Revision: 0
# Processed by: cddbd v1.5.2PL0 Copyright (c) Steve Scherf et al.
# Submitted via: audiograbber 1.83.01
#
DISCID=9c0c7f0d
DTITLE=Tom McFarland - Travelin' with the blues
DYEAR=1978
DGENRE=Blues
TTITLE0=Travelin' with the blues
TTITLE1=You can't take it with you
TTITLE2=Gasoline blues
TTITLE3=You're killing me
TTITLE4=Going back to Oakland
TTITLE5=Street walking woman
TTITLE6=Juicer's Blues
TTITLE7=Blues got me
TTITLE8=Blues up and gone
TTITLE9=Telephone Blues
TTITLE10=Midnight train
TTITLE11=Big drought in California
TTITLE12=Tom's Boogie
EXTD=
EXTT0=
EXTT1=
EXTT2=
EXTT3=
EXTT4=
EXTT5=
EXTT6=
EXTT7=
EXTT8=
EXTT9=
EXTT10=
EXTT11=
EXTT12=
PLAYORDER=
